<svg xmlns="http://www.w3.org/2000/svg" xmlns:xlink="http://www.w3.org/1999/xlink" contentStyleType="text/css" data-diagram-type="SEQUENCE" height="475px" preserveAspectRatio="none" style="width:792px;height:475px;background:#F9F9F9;" version="1.1" viewBox="0 0 792 475" width="792px" zoomAndPan="magnify"><defs/><g><rect fill="#F9F9F9" height="475" style="stroke:none;stroke-width:1;" width="792" x="0" y="0"/><g><title>API</title><rect fill="#FFFFFF" height="100.2305" style="stroke:#181818;stroke-width:1;" width="10" x="616.4229" y="112.4297"/></g><g><title>API</title><rect fill="#FFFFFF" height="64.2656" style="stroke:#181818;stroke-width:1;" width="10" x="616.4229" y="312.8906"/></g><g><title>Client</title><rect fill="#000000" fill-opacity="0.00000" height="313.8594" width="8" x="472.2651" y="81.2969"/><line style="stroke:#393939;stroke-width:0.5;stroke-dasharray:5,5;" x1="476" x2="476" y1="81.2969" y2="395.1563"/></g><g><title>API</title><rect fill="#000000" fill-opacity="0.00000" height="313.8594" width="8" x="617.4229" y="81.2969"/><line style="stroke:#393939;stroke-width:0.5;stroke-dasharray:5,5;" x1="620.9229" x2="620.9229" y1="81.2969" y2="395.1563"/></g><g class="participant participant-head" data-participant="client"><text fill="#191919" font-family="sans-serif" font-size="14" lengthAdjust="spacing" textLength="40.5303" x="453" y="77.9951">Client</text><ellipse cx="476.2651" cy="13.5" fill="#191919" rx="8" ry="8" style="stroke:#191919;stroke-width:0.5;"/><path d="M476.2651,21.5 L476.2651,48.5 M463.2651,29.5 L489.2651,29.5 M476.2651,48.5 L463.2651,63.5 M476.2651,48.5 L489.2651,63.5" fill="none" style="stroke:#191919;stroke-width:0.5;"/></g><g class="participant participant-tail" data-participant="client"><text fill="#191919" font-family="sans-serif" font-size="14" lengthAdjust="spacing" textLength="40.5303" x="453" y="407.1514">Client</text><ellipse cx="476.2651" cy="418.9531" fill="#191919" rx="8" ry="8" style="stroke:#191919;stroke-width:0.5;"/><path d="M476.2651,426.9531 L476.2651,453.9531 M463.2651,434.9531 L489.2651,434.9531 M476.2651,453.9531 L463.2651,468.9531 M476.2651,453.9531 L489.2651,468.9531" fill="none" style="stroke:#191919;stroke-width:0.5;"/></g><g class="participant participant-head" data-participant="api"><text fill="#191919" font-family="sans-serif" font-size="14" lengthAdjust="spacing" textLength="22.1484" x="607.3486" y="77.9951">API</text><path d="M600.9229,37 L600.9229,61 M600.9229,49 L617.9229,49" fill="none" style="stroke:#191919;stroke-width:0.5;"/><ellipse cx="629.9229" cy="49" fill="#EFBABC" rx="12" ry="12" style="stroke:#191919;stroke-width:0.5;"/></g><g class="participant participant-tail" data-participant="api"><text fill="#191919" font-family="sans-serif" font-size="14" lengthAdjust="spacing" textLength="22.1484" x="607.3486" y="407.1514">API</text><path d="M600.9229,414.4531 L600.9229,438.4531 M600.9229,426.4531 L617.9229,426.4531" fill="none" style="stroke:#191919;stroke-width:0.5;"/><ellipse cx="629.9229" cy="426.4531" fill="#EFBABC" rx="12" ry="12" style="stroke:#191919;stroke-width:0.5;"/></g><g><title>API</title><rect fill="#FFFFFF" height="100.2305" style="stroke:#181818;stroke-width:1;" width="10" x="616.4229" y="112.4297"/></g><g><title>API</title><rect fill="#FFFFFF" height="64.2656" style="stroke:#181818;stroke-width:1;" width="10" x="616.4229" y="312.8906"/></g><g class="message" data-participant-1="client" data-participant-2="api"><polygon fill="#191919" points="604.4229,108.4297,614.4229,112.4297,604.4229,116.4297,608.4229,112.4297" style="stroke:#191919;stroke-width:1;"/><line style="stroke:#191919;stroke-width:1;" x1="476.2651" x2="610.4229" y1="112.4297" y2="112.4297"/><text fill="#000000" font-family="sans-serif" font-size="13" lengthAdjust="spacing" textLength="34.7407" x="483.2651" y="107.3638">GET /</text></g><g class="message" data-participant-1="api" data-participant-2="client"><polygon fill="#191919" points="487.2651,208.6602,477.2651,212.6602,487.2651,216.6602,483.2651,212.6602" style="stroke:#191919;stroke-width:1;"/><line style="stroke:#191919;stroke-width:1;stroke-dasharray:2,2;" x1="481.2651" x2="620.4229" y1="212.6602" y2="212.6602"/><text fill="#000000" font-family="sans-serif" font-size="13" lengthAdjust="spacing" textLength="47.7026" x="493.2651" y="207.5942">200 OK</text></g><path d="M5,128.9297 L5,282.9297 A3.5,3.5 0 0 0 8.5,286.4297 L468.5,286.4297 A3.5,3.5 0 0 0 472,282.9297 L472,135.4297 L462,125.4297 L8.5,125.4297 A3.5,3.5 0 0 0 5,128.9297" fill="#E5E5E5" style="stroke:#191919;stroke-width:1.5;"/><path d="M462,125.4297 L462,133.6797 A1.75,1.75 0 0 0 463.75,135.4297 L472,135.4297 L462,125.4297" fill="#E5E5E5" style="stroke:#191919;stroke-width:1.5;"/><text fill="#191919" font-family="Courier" font-size="13" lengthAdjust="spacing" textLength="7.8267" x="11" y="142.4966">{</text><text fill="#191919" font-family="Courier" font-size="13" lengthAdjust="spacing" textLength="86.0933" x="26.6533" y="157.6294">"_links":&#160;{</text><text fill="#191919" font-family="Courier" font-size="13" lengthAdjust="spacing" textLength="70.4399" x="42.3066" y="172.7622">"user":&#160;{</text><text fill="#191919" font-family="Courier" font-size="13" lengthAdjust="spacing" textLength="328.7197" x="57.96" y="187.895">"href":&#160;"https://example.com/users/123456"</text><text fill="#191919" font-family="Courier" font-size="13" lengthAdjust="spacing" textLength="15.6533" x="42.3066" y="203.0278">},</text><text fill="#FF0000" font-family="Courier" font-size="13" lengthAdjust="spacing" textLength="140.8799" x="42.3066" y="218.1606">"order-history":&#160;{</text><text fill="#FF0000" font-family="Courier" font-size="13" lengthAdjust="spacing" textLength="399.1597" x="57.96" y="233.2935">"href":&#160;"https://example.com/orders?user_id=123456"</text><text fill="#FF0000" font-family="Courier" font-size="13" lengthAdjust="spacing" textLength="7.8267" x="42.3066" y="248.4263">}</text><text fill="#191919" font-family="Courier" font-size="13" lengthAdjust="spacing" textLength="7.8267" x="26.6533" y="263.5591">}</text><text fill="#191919" font-family="Courier" font-size="13" lengthAdjust="spacing" textLength="7.8267" x="11" y="278.6919">}</text><g class="message" data-participant-1="client" data-participant-2="api"><polygon fill="#191919" points="604.4229,308.8906,614.4229,312.8906,604.4229,316.8906,608.4229,312.8906" style="stroke:#191919;stroke-width:1;"/><line style="stroke:#191919;stroke-width:1;" x1="476.2651" x2="610.4229" y1="312.8906" y2="312.8906"/><text fill="#000000" font-family="sans-serif" font-size="13" lengthAdjust="spacing" textLength="121.1577" x="483.2651" y="307.8247">GET *order-history</text></g><path d="M311,329.3906 L311,347.3906 A3.5,3.5 0 0 0 314.5,350.8906 L781.5,350.8906 A3.5,3.5 0 0 0 785,347.3906 L785,335.8906 L775,325.8906 L314.5,325.8906 A3.5,3.5 0 0 0 311,329.3906" fill="#E5E5E5" style="stroke:#191919;stroke-width:1.5;"/><path d="M775,325.8906 L775,334.1406 A1.75,1.75 0 0 0 776.75,335.8906 L785,335.8906 L775,325.8906" fill="#E5E5E5" style="stroke:#191919;stroke-width:1.5;"/><text fill="#191919" font-family="Courier" font-size="13" lengthAdjust="spacing" textLength="453.9463" x="317" y="342.9575">Accesses&#160;order&#160;history&#160;without&#160;having&#160;to&#160;access&#160;user&#160;first</text><g class="message" data-participant-1="api" data-participant-2="client"><polygon fill="#191919" points="487.2651,373.1563,477.2651,377.1563,487.2651,381.1563,483.2651,377.1563" style="stroke:#191919;stroke-width:1;"/><line style="stroke:#191919;stroke-width:1;stroke-dasharray:2,2;" x1="481.2651" x2="620.4229" y1="377.1563" y2="377.1563"/><text fill="#000000" font-family="sans-serif" font-size="13" lengthAdjust="spacing" textLength="47.7026" x="493.2651" y="372.0903">200 OK</text></g><!--SRC=[XL1DImD13BtdLyGzMklM-d5Oj5AAYWZLW_SopgRkqDsP9ScgHVhVdTbgeO9u69YNlBoNl0Ejg25i30l8oldMi6bm7fHkWzUvYRrPwDWH0nYhWN5ME_AAHj3sFtW9dIyDht7wT9_AfdK0snuE9maE1WNUtJnZ3apQiSVnQ8IF3-2Z3TQqLFW4n6nHEx-IhC248kw4U8SYhfYM4MULQYj5djE7QTgQZcreyiIL_6HyUdP-aVK3coEujA4EN32LaruWS4ayh9p4EzQzyY_6FoRzl5mdhuKhhtxSVebi8BqDa2_JWNzaSRYtp3OAOpc8mDHQ4Y71deBV57ntMeLEiJ9lph-YXiXFH4pxuDAnwCvpB-Sl]--></g></svg>