<svg xmlns="http://www.w3.org/2000/svg" xmlns:xlink="http://www.w3.org/1999/xlink" contentStyleType="text/css" data-diagram-type="SEQUENCE" height="1038px" preserveAspectRatio="none" style="width:1392px;height:1038px;background:#F9F9F9;" version="1.1" viewBox="0 0 1392 1038" width="1392px" zoomAndPan="magnify"><defs/><g><rect fill="#F9F9F9" height="1038" style="stroke:none;stroke-width:1;" width="1392" x="0" y="0"/><g><title>API</title><rect fill="#FFFFFF" height="118.3633" style="stroke:#181818;stroke-width:1;" width="10" x="1110.1763" y="222.793"/></g><g><title>API</title><rect fill="#FFFFFF" height="85.0977" style="stroke:#181818;stroke-width:1;" width="10" x="1110.1763" y="373.2891"/></g><g><title>API</title><rect fill="#FFFFFF" height="201.5938" style="stroke:#181818;stroke-width:1;" width="10" x="1110.1763" y="644.5195"/></g><rect fill="none" height="842.0469" rx="3.5" ry="3.5" style="stroke:#393939;stroke-width:1;" width="1376.9761" x="9" y="98.2969"/><g><title>Client</title><rect fill="#000000" fill-opacity="0.00000" height="876.0469" width="8" x="840.2651" y="81.2969"/><line style="stroke:#393939;stroke-width:0.5;stroke-dasharray:5,5;" x1="844" x2="844" y1="81.2969" y2="957.3438"/></g><g><title>API</title><rect fill="#000000" fill-opacity="0.00000" height="876.0469" width="8" x="1111.1763" y="81.2969"/><line style="stroke:#393939;stroke-width:0.5;stroke-dasharray:5,5;" x1="1114.6763" x2="1114.6763" y1="81.2969" y2="957.3438"/></g><g class="participant participant-head" data-participant="client"><text fill="#191919" font-family="sans-serif" font-size="14" lengthAdjust="spacing" textLength="40.5303" x="821" y="77.9951">Client</text><ellipse cx="844.2651" cy="13.5" fill="#191919" rx="8" ry="8" style="stroke:#191919;stroke-width:0.5;"/><path d="M844.2651,21.5 L844.2651,48.5 M831.2651,29.5 L857.2651,29.5 M844.2651,48.5 L831.2651,63.5 M844.2651,48.5 L857.2651,63.5" fill="none" style="stroke:#191919;stroke-width:0.5;"/></g><g class="participant participant-tail" data-participant="client"><text fill="#191919" font-family="sans-serif" font-size="14" lengthAdjust="spacing" textLength="40.5303" x="821" y="969.3389">Client</text><ellipse cx="844.2651" cy="981.1406" fill="#191919" rx="8" ry="8" style="stroke:#191919;stroke-width:0.5;"/><path d="M844.2651,989.1406 L844.2651,1016.1406 M831.2651,997.1406 L857.2651,997.1406 M844.2651,1016.1406 L831.2651,1031.1406 M844.2651,1016.1406 L857.2651,1031.1406" fill="none" style="stroke:#191919;stroke-width:0.5;"/></g><g class="participant participant-head" data-participant="api"><text fill="#191919" font-family="sans-serif" font-size="14" lengthAdjust="spacing" textLength="22.1484" x="1101.1021" y="77.9951">API</text><path d="M1094.6763,37 L1094.6763,61 M1094.6763,49 L1111.6763,49" fill="none" style="stroke:#191919;stroke-width:0.5;"/><ellipse cx="1123.6763" cy="49" fill="#EFBABC" rx="12" ry="12" style="stroke:#191919;stroke-width:0.5;"/></g><g class="participant participant-tail" data-participant="api"><text fill="#191919" font-family="sans-serif" font-size="14" lengthAdjust="spacing" textLength="22.1484" x="1101.1021" y="969.3389">API</text><path d="M1094.6763,976.6406 L1094.6763,1000.6406 M1094.6763,988.6406 L1111.6763,988.6406" fill="none" style="stroke:#191919;stroke-width:0.5;"/><ellipse cx="1123.6763" cy="988.6406" fill="#EFBABC" rx="12" ry="12" style="stroke:#191919;stroke-width:0.5;"/></g><g><title>API</title><rect fill="#FFFFFF" height="118.3633" style="stroke:#181818;stroke-width:1;" width="10" x="1110.1763" y="222.793"/></g><g><title>API</title><rect fill="#FFFFFF" height="85.0977" style="stroke:#181818;stroke-width:1;" width="10" x="1110.1763" y="373.2891"/></g><g><title>API</title><rect fill="#FFFFFF" height="201.5938" style="stroke:#181818;stroke-width:1;" width="10" x="1110.1763" y="644.5195"/></g><path d="M12.5,98.2969 L73.4429,98.2969 L73.4429,105.4297 L63.4429,115.4297 L9,115.4297 L9,101.7969 A3.5,3.5 0 0 1 12.5,98.2969" fill="#EEEEEE" style="stroke:#393939;stroke-width:1.5;"/><rect fill="none" height="842.0469" rx="3.5" ry="3.5" style="stroke:#393939;stroke-width:1;" width="1376.9761" x="9" y="98.2969"/><text fill="#191919" font-family="sans-serif" font-size="13" font-weight="bold" lengthAdjust="spacing" textLength="19.4429" x="24" y="111.3638">alt</text><text fill="#393939" font-family="sans-serif" font-size="11" font-weight="bold" lengthAdjust="spacing" textLength="140.0942" x="88.4429" y="110.5073">[validation successful]</text><g class="message" data-participant-1="client" data-participant-2="api"><polygon fill="#191919" points="1098.1763,218.793,1108.1763,222.793,1098.1763,226.793,1102.1763,222.793" style="stroke:#191919;stroke-width:1;"/><line style="stroke:#191919;stroke-width:1;" x1="844.2651" x2="1104.1763" y1="222.793" y2="222.793"/><text fill="#000000" font-family="sans-serif" font-size="13" lengthAdjust="spacing" textLength="121.4751" x="851.2651" y="217.7271">POST /search-form</text></g><path d="M1125,123.9297 L1125,307.9297 A3.5,3.5 0 0 0 1128.5,311.4297 L1376.5,311.4297 A3.5,3.5 0 0 0 1380,307.9297 L1380,130.4297 L1370,120.4297 L1128.5,120.4297 A3.5,3.5 0 0 0 1125,123.9297" fill="#E5E5E5" style="stroke:#191919;stroke-width:1.5;"/><path d="M1370,120.4297 L1370,128.6797 A1.75,1.75 0 0 0 1371.75,130.4297 L1380,130.4297 L1370,120.4297" fill="#E5E5E5" style="stroke:#191919;stroke-width:1.5;"/><text fill="#191919" font-family="Courier" font-size="13" lengthAdjust="spacing" textLength="7.8267" x="1131" y="137.4966">{</text><text fill="#191919" font-family="Courier" font-size="13" lengthAdjust="spacing" textLength="93.9199" x="1131" y="152.6294">"filters":&#160;{</text><text fill="#191919" font-family="Courier" font-size="13" lengthAdjust="spacing" textLength="203.4932" x="1162.3066" y="167.7622">"category":&#160;"electronics",</text><text fill="#191919" font-family="Courier" font-size="13" lengthAdjust="spacing" textLength="125.2266" x="1162.3066" y="182.895">"price_range":&#160;{</text><text fill="#191919" font-family="Courier" font-size="13" lengthAdjust="spacing" textLength="86.0933" x="1162.3066" y="198.0278">"min":&#160;100,</text><text fill="#191919" font-family="Courier" font-size="13" lengthAdjust="spacing" textLength="78.2666" x="1162.3066" y="213.1606">"max":&#160;500</text><text fill="#191919" font-family="Courier" font-size="13" lengthAdjust="spacing" textLength="15.6533" x="1162.3066" y="228.2935">},</text><text fill="#191919" font-family="Courier" font-size="13" lengthAdjust="spacing" textLength="117.3999" x="1162.3066" y="243.4263">"brand":&#160;"acme"</text><text fill="#191919" font-family="Courier" font-size="13" lengthAdjust="spacing" textLength="15.6533" x="1131" y="258.5591">},</text><text fill="#191919" font-family="Courier" font-size="13" lengthAdjust="spacing" textLength="164.3599" x="1131" y="273.6919">"sort":&#160;"price_desc",</text><text fill="#191919" font-family="Courier" font-size="13" lengthAdjust="spacing" textLength="86.0933" x="1131" y="288.8247">"limit":&#160;20</text><text fill="#191919" font-family="Courier" font-size="13" lengthAdjust="spacing" textLength="7.8267" x="1131" y="303.9575">}</text><g class="message" data-participant-1="api" data-participant-2="client"><polygon fill="#191919" points="855.2651,337.1563,845.2651,341.1563,855.2651,345.1563,851.2651,341.1563" style="stroke:#191919;stroke-width:1;"/><line style="stroke:#191919;stroke-width:1;stroke-dasharray:2,2;" x1="849.2651" x2="1114.1763" y1="341.1563" y2="341.1563"/><text fill="#000000" font-family="sans-serif" font-size="13" lengthAdjust="spacing" textLength="94.2373" x="861.2651" y="336.0903">303 See Other</text></g><path d="M19,325.5234 L19,343.5234 A3.5,3.5 0 0 0 22.5,347.0234 L834.5,347.0234 A3.5,3.5 0 0 0 838,343.5234 L838,332.0234 L828,322.0234 L22.5,322.0234 A3.5,3.5 0 0 0 19,325.5234" fill="#E5E5E5" style="stroke:#191919;stroke-width:1.5;"/><path d="M828,322.0234 L828,330.2734 A1.75,1.75 0 0 0 829.75,332.0234 L838,332.0234 L828,322.0234" fill="#E5E5E5" style="stroke:#191919;stroke-width:1.5;"/><text fill="#191919" font-family="Courier" font-size="13" lengthAdjust="spacing" textLength="798.3193" x="25" y="339.0903">Location:&#160;/search?category=electronics&amp;price_min=100&amp;price_max=500&amp;brand=acme&amp;sort=price_desc&amp;limit=20</text><g class="message" data-participant-1="client" data-participant-2="api"><polygon fill="#191919" points="1098.1763,369.2891,1108.1763,373.2891,1098.1763,377.2891,1102.1763,373.2891" style="stroke:#191919;stroke-width:1;"/><line style="stroke:#191919;stroke-width:1;" x1="844.2651" x2="1104.1763" y1="373.2891" y2="373.2891"/><text fill="#000000" font-family="sans-serif" font-size="13" lengthAdjust="spacing" textLength="246.9111" x="851.2651" y="368.2231">GET /search?category=electronics&amp;...</text></g><g class="message" data-participant-1="api" data-participant-2="client"><polygon fill="#191919" points="855.2651,454.3867,845.2651,458.3867,855.2651,462.3867,851.2651,458.3867" style="stroke:#191919;stroke-width:1;"/><line style="stroke:#191919;stroke-width:1;stroke-dasharray:2,2;" x1="849.2651" x2="1114.1763" y1="458.3867" y2="458.3867"/><text fill="#000000" font-family="sans-serif" font-size="13" lengthAdjust="spacing" textLength="47.7026" x="861.2651" y="453.3208">200 OK</text></g><path d="M669,389.7891 L669,513.7891 A3.5,3.5 0 0 0 672.5,517.2891 L834.5,517.2891 A3.5,3.5 0 0 0 838,513.7891 L838,396.2891 L828,386.2891 L672.5,386.2891 A3.5,3.5 0 0 0 669,389.7891" fill="#E5E5E5" style="stroke:#191919;stroke-width:1.5;"/><path d="M828,386.2891 L828,394.5391 A1.75,1.75 0 0 0 829.75,396.2891 L838,396.2891 L828,386.2891" fill="#E5E5E5" style="stroke:#191919;stroke-width:1.5;"/><text fill="#191919" font-family="Courier" font-size="13" lengthAdjust="spacing" textLength="7.8267" x="675" y="403.356">{</text><text fill="#191919" font-family="Courier" font-size="13" lengthAdjust="spacing" textLength="133.0532" x="690.6533" y="418.4888">"results":&#160;[...],</text><text fill="#191919" font-family="Courier" font-size="13" lengthAdjust="spacing" textLength="93.9199" x="690.6533" y="433.6216">"total":&#160;42,</text><text fill="#191919" font-family="Courier" font-size="13" lengthAdjust="spacing" textLength="86.0933" x="690.6533" y="448.7544">"_links":&#160;{</text><text fill="#191919" font-family="Courier" font-size="13" lengthAdjust="spacing" textLength="109.5732" x="706.3066" y="463.8872">"next":&#160;{...},</text><text fill="#191919" font-family="Courier" font-size="13" lengthAdjust="spacing" textLength="101.7466" x="706.3066" y="479.02">"self":&#160;{...}</text><text fill="#191919" font-family="Courier" font-size="13" lengthAdjust="spacing" textLength="7.8267" x="690.6533" y="494.1528">}</text><text fill="#191919" font-family="Courier" font-size="13" lengthAdjust="spacing" textLength="7.8267" x="675" y="509.2856">}</text><line style="stroke:#393939;stroke-width:1;stroke-dasharray:2,2;" x1="9" x2="1385.9761" y1="523.3516" y2="523.3516"/><text fill="#393939" font-family="sans-serif" font-size="11" font-weight="bold" lengthAdjust="spacing" textLength="110.8164" x="14" y="533.562">[validation failed]</text><g class="message" data-participant-1="client" data-participant-2="api"><polygon fill="#191919" points="1098.1763,640.5195,1108.1763,644.5195,1098.1763,648.5195,1102.1763,644.5195" style="stroke:#191919;stroke-width:1;"/><line style="stroke:#191919;stroke-width:1;" x1="844.2651" x2="1104.1763" y1="644.5195" y2="644.5195"/><text fill="#000000" font-family="sans-serif" font-size="13" lengthAdjust="spacing" textLength="121.4751" x="851.2651" y="639.4536">POST /search-form</text></g><path d="M1125,545.6563 L1125,729.6563 A3.5,3.5 0 0 0 1128.5,733.1563 L1376.5,733.1563 A3.5,3.5 0 0 0 1380,729.6563 L1380,552.1563 L1370,542.1563 L1128.5,542.1563 A3.5,3.5 0 0 0 1125,545.6563" fill="#E5E5E5" style="stroke:#191919;stroke-width:1.5;"/><path d="M1370,542.1563 L1370,550.4063 A1.75,1.75 0 0 0 1371.75,552.1563 L1380,552.1563 L1370,542.1563" fill="#E5E5E5" style="stroke:#191919;stroke-width:1.5;"/><text fill="#191919" font-family="Courier" font-size="13" lengthAdjust="spacing" textLength="7.8267" x="1131" y="559.2231">{</text><text fill="#191919" font-family="Courier" font-size="13" lengthAdjust="spacing" textLength="93.9199" x="1131" y="574.356">"filters":&#160;{</text><text fill="#191919" font-family="Courier" font-size="13" lengthAdjust="spacing" textLength="203.4932" x="1162.3066" y="589.4888">"category":&#160;"electronics",</text><text fill="#191919" font-family="Courier" font-size="13" lengthAdjust="spacing" textLength="125.2266" x="1162.3066" y="604.6216">"price_range":&#160;{</text><text fill="#191919" font-family="Courier" font-size="13" lengthAdjust="spacing" textLength="86.0933" x="1162.3066" y="619.7544">"min":&#160;-20,</text><text fill="#191919" font-family="Courier" font-size="13" lengthAdjust="spacing" textLength="78.2666" x="1162.3066" y="634.8872">"max":&#160;500</text><text fill="#191919" font-family="Courier" font-size="13" lengthAdjust="spacing" textLength="15.6533" x="1162.3066" y="650.02">},</text><text fill="#191919" font-family="Courier" font-size="13" lengthAdjust="spacing" textLength="117.3999" x="1162.3066" y="665.1528">"brand":&#160;"acme"</text><text fill="#191919" font-family="Courier" font-size="13" lengthAdjust="spacing" textLength="15.6533" x="1131" y="680.2856">},</text><text fill="#191919" font-family="Courier" font-size="13" lengthAdjust="spacing" textLength="164.3599" x="1131" y="695.4185">"sort":&#160;"price_desc",</text><text fill="#191919" font-family="Courier" font-size="13" lengthAdjust="spacing" textLength="93.9199" x="1131" y="710.5513">"limit":&#160;200</text><text fill="#191919" font-family="Courier" font-size="13" lengthAdjust="spacing" textLength="7.8267" x="1131" y="725.6841">}</text><g class="message" data-participant-1="api" data-participant-2="client"><polygon fill="#191919" points="855.2651,842.1133,845.2651,846.1133,855.2651,850.1133,851.2651,846.1133" style="stroke:#191919;stroke-width:1;"/><line style="stroke:#191919;stroke-width:1;stroke-dasharray:2,2;" x1="849.2651" x2="1114.1763" y1="846.1133" y2="846.1133"/><text fill="#000000" font-family="sans-serif" font-size="13" lengthAdjust="spacing" textLength="111.6045" x="861.2651" y="841.0474">400 Bad Request</text></g><path d="M434,747.25 L434,931.25 A3.5,3.5 0 0 0 437.5,934.75 L834.5,934.75 A3.5,3.5 0 0 0 838,931.25 L838,753.75 L828,743.75 L437.5,743.75 A3.5,3.5 0 0 0 434,747.25" fill="#E5E5E5" style="stroke:#191919;stroke-width:1.5;"/><path d="M828,743.75 L828,752 A1.75,1.75 0 0 0 829.75,753.75 L838,753.75 L828,743.75" fill="#E5E5E5" style="stroke:#191919;stroke-width:1.5;"/><text fill="#191919" font-family="Courier" font-size="13" lengthAdjust="spacing" textLength="7.8267" x="440" y="760.8169">{</text><text fill="#191919" font-family="Courier" font-size="13" lengthAdjust="spacing" textLength="86.0933" x="455.6533" y="775.9497">"errors":&#160;[</text><text fill="#191919" font-family="Courier" font-size="13" lengthAdjust="spacing" textLength="7.8267" x="471.3066" y="791.0825">{</text><text fill="#191919" font-family="Courier" font-size="13" lengthAdjust="spacing" textLength="211.3198" x="486.96" y="806.2153">"field":&#160;"price_range.min",</text><text fill="#191919" font-family="Courier" font-size="13" lengthAdjust="spacing" textLength="336.5464" x="486.96" y="821.3481">"message":&#160;"Minimum&#160;price&#160;must&#160;be&#160;positive"</text><text fill="#191919" font-family="Courier" font-size="13" lengthAdjust="spacing" textLength="15.6533" x="471.3066" y="836.481">},</text><text fill="#191919" font-family="Courier" font-size="13" lengthAdjust="spacing" textLength="7.8267" x="471.3066" y="851.6138">{</text><text fill="#191919" font-family="Courier" font-size="13" lengthAdjust="spacing" textLength="133.0532" x="486.96" y="866.7466">"field":&#160;"limit",</text><text fill="#191919" font-family="Courier" font-size="13" lengthAdjust="spacing" textLength="281.7598" x="486.96" y="881.8794">"message":&#160;"Limit&#160;cannot&#160;exceed&#160;100"</text><text fill="#191919" font-family="Courier" font-size="13" lengthAdjust="spacing" textLength="7.8267" x="471.3066" y="897.0122">}</text><text fill="#191919" font-family="Courier" font-size="13" lengthAdjust="spacing" textLength="7.8267" x="455.6533" y="912.145">]</text><text fill="#191919" font-family="Courier" font-size="13" lengthAdjust="spacing" textLength="7.8267" x="440" y="927.2778">}</text><!--SRC=[pLDDRzim3BtxLt0-vD8ayzBk4i0Rjc8RXdLDiVPM58KYqubGVMIKNAGeyjzBANQS1jbk0sR0iFL8YkyzIc_24Ws24UGp_w3iIf0mSEa2VdKsN0gEdRk655AM2HaSmRbMQ0C83pBzPNFNs4hG4tow-XvXiL8P9-i0ZqAhIWJbBFX6IlI-RdG6RI6CFiJSavCfNCskR-2jHq5oEQeT6Kwop058BPQ15y_yvhNI0SddqxICJov5m8MZ9yPor2W3EQkapuTTmegKn7iITe7xTKPPNhuhYbsY4Mj6tXT52snsaJbNLx61a0Rph0tbtb68wBP3XLwchhbMHiN09EwquHTj5RNm7s5eoC9fSGhNY31ZxwbJgh6EGY-SJ8PDEpi-TXBBFNs3RLDMKRA6RYNM9VCV9Bvb93k87CkUu21nAnEpdjMnWNpxSlDt0kFnk1SqAGgO_JXGilKw9_ID3d5ejrnpjtKr3ou8pTZPf0NkjR8FhqPhSHrjVEQgVXOUTTs12TiSc9oXzhX_y6gXD5R_qQ4RJVxfeVlZgJlZ8NqM5Vp2tmtwS7nQIEIIsDkMI4S-EO6wwfidUUEeQTZd6BxZ8gdEVoghJ6CWPODfV80vmifv5THZalHAyR56MrL3EBh_HGo259Pb0AubOXKlz6xZzBqxS8E_sGi0]--></g></svg>