<svg xmlns="http://www.w3.org/2000/svg" xmlns:xlink="http://www.w3.org/1999/xlink" contentStyleType="text/css" data-diagram-type="SEQUENCE" height="182px" preserveAspectRatio="none" style="width:112px;height:182px;background:#F9F9F9;" version="1.1" viewBox="0 0 112 182" width="112px" zoomAndPan="magnify"><defs/><g><rect fill="#F9F9F9" height="182" style="stroke:none;stroke-width:1;" width="112" x="0" y="0"/><g><title>Client</title><rect fill="#000000" fill-opacity="0.00000" height="20" width="8" x="24.2651" y="81.2969"/><line style="stroke:#393939;stroke-width:0.5;stroke-dasharray:5,5;" x1="28" x2="28" y1="81.2969" y2="101.2969"/></g><g><title>API</title><rect fill="#000000" fill-opacity="0.00000" height="20" width="8" x="82.0303" y="81.2969"/><line style="stroke:#393939;stroke-width:0.5;stroke-dasharray:5,5;" x1="85.5303" x2="85.5303" y1="81.2969" y2="101.2969"/></g><g class="participant participant-head" data-participant="client"><text fill="#191919" font-family="sans-serif" font-size="14" lengthAdjust="spacing" textLength="40.5303" x="5" y="77.9951">Client</text><ellipse cx="28.2651" cy="13.5" fill="#191919" rx="8" ry="8" style="stroke:#191919;stroke-width:0.5;"/><path d="M28.2651,21.5 L28.2651,48.5 M15.2651,29.5 L41.2651,29.5 M28.2651,48.5 L15.2651,63.5 M28.2651,48.5 L41.2651,63.5" fill="none" style="stroke:#191919;stroke-width:0.5;"/></g><g class="participant participant-tail" data-participant="client"><text fill="#191919" font-family="sans-serif" font-size="14" lengthAdjust="spacing" textLength="40.5303" x="5" y="113.292">Client</text><ellipse cx="28.2651" cy="125.0938" fill="#191919" rx="8" ry="8" style="stroke:#191919;stroke-width:0.5;"/><path d="M28.2651,133.0938 L28.2651,160.0938 M15.2651,141.0938 L41.2651,141.0938 M28.2651,160.0938 L15.2651,175.0938 M28.2651,160.0938 L41.2651,175.0938" fill="none" style="stroke:#191919;stroke-width:0.5;"/></g><g class="participant participant-head" data-participant="api"><text fill="#191919" font-family="sans-serif" font-size="14" lengthAdjust="spacing" textLength="22.1484" x="71.9561" y="77.9951">API</text><path d="M65.5303,37 L65.5303,61 M65.5303,49 L82.5303,49" fill="none" style="stroke:#191919;stroke-width:0.5;"/><ellipse cx="94.5303" cy="49" fill="#EFBABC" rx="12" ry="12" style="stroke:#191919;stroke-width:0.5;"/></g><g class="participant participant-tail" data-participant="api"><text fill="#191919" font-family="sans-serif" font-size="14" lengthAdjust="spacing" textLength="22.1484" x="71.9561" y="113.292">API</text><path d="M65.5303,120.5938 L65.5303,144.5938 M65.5303,132.5938 L82.5303,132.5938" fill="none" style="stroke:#191919;stroke-width:0.5;"/><ellipse cx="94.5303" cy="132.5938" fill="#EFBABC" rx="12" ry="12" style="stroke:#191919;stroke-width:0.5;"/></g><!--SRC=[7SbB2e0m303HVKuHZo85mKtn2h463Dgaf77XxVtiXZT3x5mPAtc7VeWsSggOBNWoZKplItQvi0DG2NDCfx06KiVo5wnswKP-uxZC7rCJU000]--></g></svg>