<svg xmlns="http://www.w3.org/2000/svg" xmlns:xlink="http://www.w3.org/1999/xlink" contentStyleType="text/css" data-diagram-type="SEQUENCE" height="926px" preserveAspectRatio="none" style="width:712px;height:926px;background:#F9F9F9;" version="1.1" viewBox="0 0 712 926" width="712px" zoomAndPan="magnify"><defs/><g><rect fill="#F9F9F9" height="926" style="stroke:none;stroke-width:1;" width="712" x="0" y="0"/><g><title>API</title><rect fill="#FFFFFF" height="130.4961" style="stroke:#181818;stroke-width:1;" width="10" x="671.4976" y="155.5625"/></g><g><title>API</title><rect fill="#FFFFFF" height="198.5938" style="stroke:#181818;stroke-width:1;" width="10" x="671.4976" y="459.6875"/></g><g><title>Client</title><rect fill="#000000" fill-opacity="0.00000" height="764.4453" width="8" x="378.2651" y="81.2969"/><line style="stroke:#393939;stroke-width:0.5;stroke-dasharray:5,5;" x1="382" x2="382" y1="81.2969" y2="845.7422"/></g><g><title>API</title><rect fill="#000000" fill-opacity="0.00000" height="764.4453" width="8" x="672.4976" y="81.2969"/><line style="stroke:#393939;stroke-width:0.5;stroke-dasharray:5,5;" x1="675.9976" x2="675.9976" y1="81.2969" y2="845.7422"/></g><g class="participant participant-head" data-participant="client"><text fill="#191919" font-family="sans-serif" font-size="14" lengthAdjust="spacing" textLength="40.5303" x="359" y="77.9951">Client</text><ellipse cx="382.2651" cy="13.5" fill="#191919" rx="8" ry="8" style="stroke:#191919;stroke-width:0.5;"/><path d="M382.2651,21.5 L382.2651,48.5 M369.2651,29.5 L395.2651,29.5 M382.2651,48.5 L369.2651,63.5 M382.2651,48.5 L395.2651,63.5" fill="none" style="stroke:#191919;stroke-width:0.5;"/></g><g class="participant participant-tail" data-participant="client"><text fill="#191919" font-family="sans-serif" font-size="14" lengthAdjust="spacing" textLength="40.5303" x="359" y="857.7373">Client</text><ellipse cx="382.2651" cy="869.5391" fill="#191919" rx="8" ry="8" style="stroke:#191919;stroke-width:0.5;"/><path d="M382.2651,877.5391 L382.2651,904.5391 M369.2651,885.5391 L395.2651,885.5391 M382.2651,904.5391 L369.2651,919.5391 M382.2651,904.5391 L395.2651,919.5391" fill="none" style="stroke:#191919;stroke-width:0.5;"/></g><g class="participant participant-head" data-participant="api"><text fill="#191919" font-family="sans-serif" font-size="14" lengthAdjust="spacing" textLength="22.1484" x="662.4233" y="77.9951">API</text><path d="M655.9976,37 L655.9976,61 M655.9976,49 L672.9976,49" fill="none" style="stroke:#191919;stroke-width:0.5;"/><ellipse cx="684.9976" cy="49" fill="#EFBABC" rx="12" ry="12" style="stroke:#191919;stroke-width:0.5;"/></g><g class="participant participant-tail" data-participant="api"><text fill="#191919" font-family="sans-serif" font-size="14" lengthAdjust="spacing" textLength="22.1484" x="662.4233" y="857.7373">API</text><path d="M655.9976,865.0391 L655.9976,889.0391 M655.9976,877.0391 L672.9976,877.0391" fill="none" style="stroke:#191919;stroke-width:0.5;"/><ellipse cx="684.9976" cy="877.0391" fill="#EFBABC" rx="12" ry="12" style="stroke:#191919;stroke-width:0.5;"/></g><g><title>API</title><rect fill="#FFFFFF" height="130.4961" style="stroke:#181818;stroke-width:1;" width="10" x="671.4976" y="155.5625"/></g><g><title>API</title><rect fill="#FFFFFF" height="198.5938" style="stroke:#181818;stroke-width:1;" width="10" x="671.4976" y="459.6875"/></g><rect fill="#EEEEEE" height="3" rx="3.5" ry="3.5" style="stroke:#EEEEEE;stroke-width:1;" width="705.9976" x="0" y="111.8633"/><line style="stroke:#191919;stroke-width:0.5;" x1="0" x2="705.9976" y1="111.8633" y2="111.8633"/><line style="stroke:#191919;stroke-width:0.5;" x1="0" x2="705.9976" y1="114.8633" y2="114.8633"/><rect fill="#EEEEEE" height="23.1328" rx="3.5" ry="3.5" style="stroke:#191919;stroke-width:1;" width="121.7896" x="292.104" y="101.2969"/><text fill="#191919" font-family="sans-serif" font-size="13" font-weight="bold" lengthAdjust="spacing" textLength="103.2637" x="298.104" y="117.3638">Basic Request</text><g class="message" data-participant-1="client" data-participant-2="api"><polygon fill="#191919" points="659.4976,151.5625,669.4976,155.5625,659.4976,159.5625,663.4976,155.5625" style="stroke:#191919;stroke-width:1;"/><line style="stroke:#191919;stroke-width:1;" x1="382.2651" x2="665.4976" y1="155.5625" y2="155.5625"/><text fill="#000000" font-family="sans-serif" font-size="13" lengthAdjust="spacing" textLength="99.0615" x="389.2651" y="150.4966">GET /users/123</text></g><g class="message" data-participant-1="api" data-participant-2="client"><polygon fill="#191919" points="393.2651,282.0586,383.2651,286.0586,393.2651,290.0586,389.2651,286.0586" style="stroke:#191919;stroke-width:1;"/><line style="stroke:#191919;stroke-width:1;stroke-dasharray:2,2;" x1="387.2651" x2="675.4976" y1="286.0586" y2="286.0586"/><text fill="#000000" font-family="sans-serif" font-size="13" lengthAdjust="spacing" textLength="47.7026" x="399.2651" y="280.9927">200 OK</text></g><path d="M51,172.0625 L51,386.0625 A3.5,3.5 0 0 0 54.5,389.5625 L373.5,389.5625 A3.5,3.5 0 0 0 377,386.0625 L377,178.5625 L367,168.5625 L54.5,168.5625 A3.5,3.5 0 0 0 51,172.0625" fill="#E5E5E5" style="stroke:#191919;stroke-width:1.5;"/><path d="M367,168.5625 L367,176.8125 A1.75,1.75 0 0 0 368.75,178.5625 L377,178.5625 L367,168.5625" fill="#E5E5E5" style="stroke:#191919;stroke-width:1.5;"/><text fill="#191919" font-family="Courier" font-size="13" lengthAdjust="spacing" textLength="7.8267" x="57" y="185.6294">{</text><text fill="#191919" font-family="Courier" font-size="13" lengthAdjust="spacing" textLength="93.9199" x="72.6533" y="200.7622">"id":&#160;"123",</text><text fill="#191919" font-family="Courier" font-size="13" lengthAdjust="spacing" textLength="148.7065" x="72.6533" y="215.895">"name":&#160;"John&#160;Doe",</text><text fill="#191919" font-family="Courier" font-size="13" lengthAdjust="spacing" textLength="250.4531" x="72.6533" y="231.0278">"email":&#160;"john.doe@example.com",</text><text fill="#191919" font-family="Courier" font-size="13" lengthAdjust="spacing" textLength="289.5864" x="72.6533" y="246.1606">"created_at":&#160;"2023-01-15T10:30:00Z",</text><text fill="#191919" font-family="Courier" font-size="13" lengthAdjust="spacing" textLength="86.0933" x="72.6533" y="261.2935">"_links":&#160;{</text><text fill="#191919" font-family="Courier" font-size="13" lengthAdjust="spacing" textLength="70.4399" x="88.3066" y="276.4263">"self":&#160;{</text><text fill="#191919" font-family="Courier" font-size="13" lengthAdjust="spacing" textLength="187.8398" x="103.96" y="291.5591">"href":&#160;"/api/users/123"</text><text fill="#191919" font-family="Courier" font-size="13" lengthAdjust="spacing" textLength="15.6533" x="88.3066" y="306.6919">},</text><text fill="#191919" font-family="Courier" font-size="13" lengthAdjust="spacing" textLength="86.0933" x="88.3066" y="321.8247">"orders":&#160;{</text><text fill="#191919" font-family="Courier" font-size="13" lengthAdjust="spacing" textLength="242.6265" x="103.96" y="336.9575">"href":&#160;"/api/users/123/orders"</text><text fill="#191919" font-family="Courier" font-size="13" lengthAdjust="spacing" textLength="7.8267" x="88.3066" y="352.0903">}</text><text fill="#191919" font-family="Courier" font-size="13" lengthAdjust="spacing" textLength="7.8267" x="72.6533" y="367.2231">}</text><text fill="#191919" font-family="Courier" font-size="13" lengthAdjust="spacing" textLength="7.8267" x="57" y="382.356">}</text><rect fill="#EEEEEE" height="3" rx="3.5" ry="3.5" style="stroke:#EEEEEE;stroke-width:1;" width="705.9976" x="0" y="415.9883"/><line style="stroke:#191919;stroke-width:0.5;" x1="0" x2="705.9976" y1="415.9883" y2="415.9883"/><line style="stroke:#191919;stroke-width:0.5;" x1="0" x2="705.9976" y1="418.9883" y2="418.9883"/><rect fill="#EEEEEE" height="23.1328" rx="3.5" ry="3.5" style="stroke:#191919;stroke-width:1;" width="251.1675" x="227.415" y="405.4219"/><text fill="#191919" font-family="sans-serif" font-size="13" font-weight="bold" lengthAdjust="spacing" textLength="232.6416" x="233.415" y="421.4888">Request with Toggle Parameter</text><g class="message" data-participant-1="client" data-participant-2="api"><polygon fill="#191919" points="659.4976,455.6875,669.4976,459.6875,659.4976,463.6875,663.4976,459.6875" style="stroke:#191919;stroke-width:1;"/><line style="stroke:#191919;stroke-width:1;" x1="382.2651" x2="665.4976" y1="459.6875" y2="459.6875"/><text fill="#000000" font-family="sans-serif" font-size="13" lengthAdjust="spacing" textLength="270.2324" x="389.2651" y="454.6216">GET /users/123?include_order_stats=true</text></g><g class="message" data-participant-1="api" data-participant-2="client"><polygon fill="#191919" points="393.2651,654.2813,383.2651,658.2813,393.2651,662.2813,389.2651,658.2813" style="stroke:#191919;stroke-width:1;"/><line style="stroke:#191919;stroke-width:1;stroke-dasharray:2,2;" x1="387.2651" x2="675.4976" y1="658.2813" y2="658.2813"/><text fill="#000000" font-family="sans-serif" font-size="13" lengthAdjust="spacing" textLength="47.7026" x="399.2651" y="653.2153">200 OK</text></g><path d="M5,476.1875 L5,827.1875 A3.5,3.5 0 0 0 8.5,830.6875 L374.5,830.6875 A3.5,3.5 0 0 0 378,827.1875 L378,482.6875 L368,472.6875 L8.5,472.6875 A3.5,3.5 0 0 0 5,476.1875" fill="#E5E5E5" style="stroke:#191919;stroke-width:1.5;"/><path d="M368,472.6875 L368,480.9375 A1.75,1.75 0 0 0 369.75,482.6875 L378,482.6875 L368,472.6875" fill="#E5E5E5" style="stroke:#191919;stroke-width:1.5;"/><text fill="#191919" font-family="Courier" font-size="13" lengthAdjust="spacing" textLength="7.8267" x="11" y="489.7544">{</text><text fill="#191919" font-family="Courier" font-size="13" lengthAdjust="spacing" textLength="93.9199" x="26.6533" y="504.8872">"id":&#160;"123",</text><text fill="#191919" font-family="Courier" font-size="13" lengthAdjust="spacing" textLength="148.7065" x="26.6533" y="520.02">"name":&#160;"John&#160;Doe",</text><text fill="#191919" font-family="Courier" font-size="13" lengthAdjust="spacing" textLength="250.4531" x="26.6533" y="535.1528">"email":&#160;"john.doe@example.com",</text><text fill="#191919" font-family="Courier" font-size="13" lengthAdjust="spacing" textLength="289.5864" x="26.6533" y="550.2856">"created_at":&#160;"2023-01-15T10:30:00Z",</text><text fill="#191919" font-family="Courier" font-size="13" lengthAdjust="spacing" textLength="15.6533" x="11" y="565.4185">&#160;&#160;</text><text fill="#FF0000" font-family="Courier" font-size="13" lengthAdjust="spacing" textLength="125.2266" x="26.6533" y="565.4185">"order_stats":&#160;{</text><text fill="#191919" font-family="Courier" font-size="13" lengthAdjust="spacing" textLength="15.6533" x="11" y="580.5513">&#160;&#160;</text><text fill="#FF0000" font-family="Courier" font-size="13" lengthAdjust="spacing" textLength="148.7065" x="42.3066" y="580.5513">"total_orders":&#160;42,</text><text fill="#191919" font-family="Courier" font-size="13" lengthAdjust="spacing" textLength="15.6533" x="11" y="595.6841">&#160;&#160;</text><text fill="#FF0000" font-family="Courier" font-size="13" lengthAdjust="spacing" textLength="125.2266" x="42.3066" y="595.6841">"total_spent":&#160;{</text><text fill="#191919" font-family="Courier" font-size="13" lengthAdjust="spacing" textLength="15.6533" x="11" y="610.8169">&#160;&#160;</text><text fill="#FF0000" font-family="Courier" font-size="13" lengthAdjust="spacing" textLength="140.8799" x="57.96" y="610.8169">"amount":&#160;1299.50,</text><text fill="#191919" font-family="Courier" font-size="13" lengthAdjust="spacing" textLength="15.6533" x="11" y="625.9497">&#160;&#160;</text><text fill="#FF0000" font-family="Courier" font-size="13" lengthAdjust="spacing" textLength="133.0532" x="57.96" y="625.9497">"currency":&#160;"USD"</text><text fill="#191919" font-family="Courier" font-size="13" lengthAdjust="spacing" textLength="15.6533" x="11" y="641.0825">&#160;&#160;</text><text fill="#FF0000" font-family="Courier" font-size="13" lengthAdjust="spacing" textLength="15.6533" x="42.3066" y="641.0825">},</text><text fill="#191919" font-family="Courier" font-size="13" lengthAdjust="spacing" textLength="15.6533" x="11" y="656.2153">&#160;&#160;</text><text fill="#FF0000" font-family="Courier" font-size="13" lengthAdjust="spacing" textLength="226.9731" x="42.3066" y="656.2153">"average_order_value":&#160;30.94,</text><text fill="#191919" font-family="Courier" font-size="13" lengthAdjust="spacing" textLength="15.6533" x="11" y="671.3481">&#160;&#160;</text><text fill="#FF0000" font-family="Courier" font-size="13" lengthAdjust="spacing" textLength="320.8931" x="42.3066" y="671.3481">"last_order_date":&#160;"2024-12-01T14:22:00Z"</text><text fill="#191919" font-family="Courier" font-size="13" lengthAdjust="spacing" textLength="15.6533" x="11" y="686.481">&#160;&#160;</text><text fill="#FF0000" font-family="Courier" font-size="13" lengthAdjust="spacing" textLength="15.6533" x="26.6533" y="686.481">},</text><text fill="#191919" font-family="Courier" font-size="13" lengthAdjust="spacing" textLength="86.0933" x="26.6533" y="701.6138">"_links":&#160;{</text><text fill="#191919" font-family="Courier" font-size="13" lengthAdjust="spacing" textLength="70.4399" x="42.3066" y="716.7466">"self":&#160;{</text><text fill="#191919" font-family="Courier" font-size="13" lengthAdjust="spacing" textLength="187.8398" x="57.96" y="731.8794">"href":&#160;"/api/users/123"</text><text fill="#191919" font-family="Courier" font-size="13" lengthAdjust="spacing" textLength="15.6533" x="42.3066" y="747.0122">},</text><text fill="#191919" font-family="Courier" font-size="13" lengthAdjust="spacing" textLength="86.0933" x="42.3066" y="762.145">"orders":&#160;{</text><text fill="#191919" font-family="Courier" font-size="13" lengthAdjust="spacing" textLength="242.6265" x="57.96" y="777.2778">"href":&#160;"/api/users/123/orders"</text><text fill="#191919" font-family="Courier" font-size="13" lengthAdjust="spacing" textLength="7.8267" x="42.3066" y="792.4106">}</text><text fill="#191919" font-family="Courier" font-size="13" lengthAdjust="spacing" textLength="7.8267" x="26.6533" y="807.5435">}</text><text fill="#191919" font-family="Courier" font-size="13" lengthAdjust="spacing" textLength="7.8267" x="11" y="822.6763">}</text><!--SRC=[pP9BRzGm483l_XL3hjs7azqUDchAemK4IAMYouLBD3ZJNLF7NiPEIuNslsCdsr9e4JqX3f4yCz_Ouoz-4jRK4hJ8NlWBRJV8sCA92_JAsN22iNRaEjR4Gg0AZk78QB81q8FgL-Apwso3V0tFJz-aD6wq45K5Bz1h1H_eQqS-G5K9CJJ0-30nUtibl7wvX6ddYVqqBsQ2ANHieP0IthyJDWu1Xiw3-2u0Cjra9MGHoqOfj76qb7ZhrXQE7GrPQb6RbFuIqvF6qJFwXkt6q4IvTa0K4mPgQWo9AsGn6yjydEylSrdEP2dbfu6hZRONFZBfz1XxCkUtKOpNJ2dEfl4kF- -GzUNjQEXntCJytxkcEt1e5kdR2h9DKj2xlB5ufSCQbcwrCWIdwLTH87wCswVQAjCrLFSdrJvWy5NWZXuj7Vw5zGFbZEEIgJdCxaowCtYd6hSCBg2fRnNFYz4V4B-9PXxQ8XBOnjURYdcnM4psvUW1HdNCPDLrclpZsN7sExAzVp1U4kFgnlObcYvfcyd9OduVDkZ3ZcoYf9sW-JWlegDbFY-BeXVqQ-Fs_tgbFm00]--></g></svg>