<svg xmlns="http://www.w3.org/2000/svg" xmlns:xlink="http://www.w3.org/1999/xlink" contentStyleType="text/css" data-diagram-type="SEQUENCE" height="411px" preserveAspectRatio="none" style="width:490px;height:411px;background:#F9F9F9;" version="1.1" viewBox="0 0 490 411" width="490px" zoomAndPan="magnify"><defs/><g><rect fill="#F9F9F9" height="411" style="stroke:none;stroke-width:1;" width="490" x="0" y="0"/><g><title>API</title><rect fill="#FFFFFF" height="62.3984" style="stroke:#181818;stroke-width:1;" width="10" x="444.4907" y="136.5625"/></g><g><title>API</title><rect fill="#FFFFFF" height="29.1328" style="stroke:#181818;stroke-width:1;" width="10" x="444.4907" y="276.1641"/></g><rect fill="none" height="215" rx="3.5" ry="3.5" style="stroke:#393939;stroke-width:1;" width="474.9907" x="9" y="98.2969"/><g><title>Client</title><rect fill="#000000" fill-opacity="0.00000" height="249" width="8" x="300.2651" y="81.2969"/><line style="stroke:#393939;stroke-width:0.5;stroke-dasharray:5,5;" x1="304" x2="304" y1="81.2969" y2="330.2969"/></g><g><title>API</title><rect fill="#000000" fill-opacity="0.00000" height="249" width="8" x="445.4907" y="81.2969"/><line style="stroke:#393939;stroke-width:0.5;stroke-dasharray:5,5;" x1="448.9907" x2="448.9907" y1="81.2969" y2="330.2969"/></g><g class="participant participant-head" data-participant="client"><text fill="#191919" font-family="sans-serif" font-size="14" lengthAdjust="spacing" textLength="40.5303" x="281" y="77.9951">Client</text><ellipse cx="304.2651" cy="13.5" fill="#191919" rx="8" ry="8" style="stroke:#191919;stroke-width:0.5;"/><path d="M304.2651,21.5 L304.2651,48.5 M291.2651,29.5 L317.2651,29.5 M304.2651,48.5 L291.2651,63.5 M304.2651,48.5 L317.2651,63.5" fill="none" style="stroke:#191919;stroke-width:0.5;"/></g><g class="participant participant-tail" data-participant="client"><text fill="#191919" font-family="sans-serif" font-size="14" lengthAdjust="spacing" textLength="40.5303" x="281" y="342.292">Client</text><ellipse cx="304.2651" cy="354.0938" fill="#191919" rx="8" ry="8" style="stroke:#191919;stroke-width:0.5;"/><path d="M304.2651,362.0938 L304.2651,389.0938 M291.2651,370.0938 L317.2651,370.0938 M304.2651,389.0938 L291.2651,404.0938 M304.2651,389.0938 L317.2651,404.0938" fill="none" style="stroke:#191919;stroke-width:0.5;"/></g><g class="participant participant-head" data-participant="api"><text fill="#191919" font-family="sans-serif" font-size="14" lengthAdjust="spacing" textLength="22.1484" x="435.4165" y="77.9951">API</text><path d="M428.9907,37 L428.9907,61 M428.9907,49 L445.9907,49" fill="none" style="stroke:#191919;stroke-width:0.5;"/><ellipse cx="457.9907" cy="49" fill="#EFBABC" rx="12" ry="12" style="stroke:#191919;stroke-width:0.5;"/></g><g class="participant participant-tail" data-participant="api"><text fill="#191919" font-family="sans-serif" font-size="14" lengthAdjust="spacing" textLength="22.1484" x="435.4165" y="342.292">API</text><path d="M428.9907,349.5938 L428.9907,373.5938 M428.9907,361.5938 L445.9907,361.5938" fill="none" style="stroke:#191919;stroke-width:0.5;"/><ellipse cx="457.9907" cy="361.5938" fill="#EFBABC" rx="12" ry="12" style="stroke:#191919;stroke-width:0.5;"/></g><g><title>API</title><rect fill="#FFFFFF" height="62.3984" style="stroke:#181818;stroke-width:1;" width="10" x="444.4907" y="136.5625"/></g><g><title>API</title><rect fill="#FFFFFF" height="29.1328" style="stroke:#181818;stroke-width:1;" width="10" x="444.4907" y="276.1641"/></g><path d="M12.5,98.2969 L73.4429,98.2969 L73.4429,105.4297 L63.4429,115.4297 L9,115.4297 L9,101.7969 A3.5,3.5 0 0 1 12.5,98.2969" fill="#EEEEEE" style="stroke:#393939;stroke-width:1.5;"/><rect fill="none" height="215" rx="3.5" ry="3.5" style="stroke:#393939;stroke-width:1;" width="474.9907" x="9" y="98.2969"/><text fill="#191919" font-family="sans-serif" font-size="13" font-weight="bold" lengthAdjust="spacing" textLength="19.4429" x="24" y="111.3638">alt</text><text fill="#393939" font-family="sans-serif" font-size="11" font-weight="bold" lengthAdjust="spacing" textLength="113.2334" x="88.4429" y="110.5073">[valid credentials]</text><g class="message" data-participant-1="client" data-participant-2="api"><polygon fill="#191919" points="432.4907,132.5625,442.4907,136.5625,432.4907,140.5625,436.4907,136.5625" style="stroke:#191919;stroke-width:1;"/><line style="stroke:#191919;stroke-width:1;" x1="304.2651" x2="438.4907" y1="136.5625" y2="136.5625"/><text fill="#000000" font-family="sans-serif" font-size="13" lengthAdjust="spacing" textLength="85.8076" x="311.2651" y="131.4966">GET /whoami</text></g><g class="message" data-participant-1="api" data-participant-2="client"><polygon fill="#191919" points="315.2651,194.9609,305.2651,198.9609,315.2651,202.9609,311.2651,198.9609" style="stroke:#191919;stroke-width:1;"/><line style="stroke:#191919;stroke-width:1;stroke-dasharray:2,2;" x1="309.2651" x2="448.4907" y1="198.9609" y2="198.9609"/><text fill="#000000" font-family="sans-serif" font-size="13" lengthAdjust="spacing" textLength="47.7026" x="321.2651" y="193.895">200 OK</text></g><path d="M19,153.0625 L19,231.0625 A3.5,3.5 0 0 0 22.5,234.5625 L294.5,234.5625 A3.5,3.5 0 0 0 298,231.0625 L298,159.5625 L288,149.5625 L22.5,149.5625 A3.5,3.5 0 0 0 19,153.0625" fill="#E5E5E5" style="stroke:#191919;stroke-width:1.5;"/><path d="M288,149.5625 L288,157.8125 A1.75,1.75 0 0 0 289.75,159.5625 L298,159.5625 L288,149.5625" fill="#E5E5E5" style="stroke:#191919;stroke-width:1.5;"/><text fill="#191919" font-family="Courier" font-size="13" lengthAdjust="spacing" textLength="7.8267" x="25" y="166.6294">{</text><text fill="#191919" font-family="Courier" font-size="13" lengthAdjust="spacing" textLength="133.0532" x="40.6533" y="181.7622">"id":&#160;"user-123",</text><text fill="#191919" font-family="Courier" font-size="13" lengthAdjust="spacing" textLength="148.7065" x="40.6533" y="196.895">"name":&#160;"John&#160;Doe",</text><text fill="#191919" font-family="Courier" font-size="13" lengthAdjust="spacing" textLength="242.6265" x="40.6533" y="212.0278">"email":&#160;"john.doe@example.com"</text><text fill="#191919" font-family="Courier" font-size="13" lengthAdjust="spacing" textLength="7.8267" x="25" y="227.1606">}</text><line style="stroke:#393939;stroke-width:1;stroke-dasharray:2,2;" x1="9" x2="483.9907" y1="241.2266" y2="241.2266"/><text fill="#393939" font-family="sans-serif" font-size="11" font-weight="bold" lengthAdjust="spacing" textLength="193.2788" x="14" y="251.437">[invalid or missing credentials]</text><g class="message" data-participant-1="client" data-participant-2="api"><polygon fill="#191919" points="432.4907,272.1641,442.4907,276.1641,432.4907,280.1641,436.4907,276.1641" style="stroke:#191919;stroke-width:1;"/><line style="stroke:#191919;stroke-width:1;" x1="304.2651" x2="438.4907" y1="276.1641" y2="276.1641"/><text fill="#000000" font-family="sans-serif" font-size="13" lengthAdjust="spacing" textLength="85.8076" x="311.2651" y="271.0981">GET /whoami</text></g><g class="message" data-participant-1="api" data-participant-2="client"><polygon fill="#191919" points="315.2651,301.2969,305.2651,305.2969,315.2651,309.2969,311.2651,305.2969" style="stroke:#191919;stroke-width:1;"/><line style="stroke:#191919;stroke-width:1;stroke-dasharray:2,2;" x1="309.2651" x2="448.4907" y1="305.2969" y2="305.2969"/><text fill="#000000" font-family="sans-serif" font-size="13" lengthAdjust="spacing" textLength="116.2256" x="321.2651" y="300.231">401 Unauthorized</text></g><!--SRC=[dKz9JWD13BptAynSGy8aSCe1WS8YG0eSu05csZ26RZjozx2Al-CXy04Ebkogigfgf_QK2J9Q2UMPPOE66TPQwKobhj6vbGx6P25WLzLWbPYa0XReVhPmhuD4j7SulhaOOTnmS76gy8A98tH6qNMCgGJuVOBfuQYRJ9PmVdeBUw-zOcQdZUfW0eksXUihlyMJGAA7wlkd3q33iLb2CnIowNont-nkKV6e8twflS29qXzE6JcDn9CJiwXqH6-ODubcdUR6DLy-974q2e5I8M3P1lUocKjXUVnNXuDs3dU2G-tL-8DYS9Vm3G00]--></g></svg>