<?xml version="1.0" encoding="UTF-8" standalone="no"?><svg xmlns="http://www.w3.org/2000/svg" xmlns:xlink="http://www.w3.org/1999/xlink" contentStyleType="text/css" height="476px" preserveAspectRatio="none" style="width:808px;height:476px;background:#F9F9F9;" version="1.1" viewBox="0 0 808 476" width="808px" zoomAndPan="magnify"><defs/><g><rect fill="#FFFFFF" height="100.3193" style="stroke:#393939;stroke-width:1.0;" width="10" x="625" y="112.7988"/><rect fill="#FFFFFF" height="64.4434" style="stroke:#393939;stroke-width:1.0;" width="10" x="625" y="313.4375"/><line style="stroke:#393939;stroke-width:0.5;stroke-dasharray:5.0,5.0;" x1="487" x2="487" y1="81.4883" y2="395.8809"/><line style="stroke:#393939;stroke-width:0.5;stroke-dasharray:5.0,5.0;" x1="629.5" x2="629.5" y1="81.4883" y2="395.8809"/><text fill="#191919" font-family="sans-serif" font-size="14" lengthAdjust="spacing" textLength="40" x="464" y="78.5352">Client</text><ellipse cx="487" cy="13.5" fill="#191919" rx="8" ry="8" style="stroke:#191919;stroke-width:0.5;"/><path d="M487,21.5 L487,48.5 M474,29.5 L500,29.5 M487,48.5 L474,63.5 M487,48.5 L500,63.5 " fill="none" style="stroke:#191919;stroke-width:0.5;"/><text fill="#191919" font-family="sans-serif" font-size="14" lengthAdjust="spacing" textLength="40" x="464" y="408.416">Client</text><ellipse cx="487" cy="419.8691" fill="#191919" rx="8" ry="8" style="stroke:#191919;stroke-width:0.5;"/><path d="M487,427.8691 L487,454.8691 M474,435.8691 L500,435.8691 M487,454.8691 L474,469.8691 M487,454.8691 L500,469.8691 " fill="none" style="stroke:#191919;stroke-width:0.5;"/><text fill="#191919" font-family="sans-serif" font-size="14" lengthAdjust="spacing" textLength="22" x="616" y="78.5352">API</text><path d="M609.5,37 L609.5,61 M609.5,49 L626.5,49 " fill="none" style="stroke:#191919;stroke-width:0.5;"/><ellipse cx="638.5" cy="49" fill="#EFBABC" rx="12" ry="12" style="stroke:#191919;stroke-width:0.5;"/><text fill="#191919" font-family="sans-serif" font-size="14" lengthAdjust="spacing" textLength="22" x="616" y="408.416">API</text><path d="M609.5,415.3691 L609.5,439.3691 M609.5,427.3691 L626.5,427.3691 " fill="none" style="stroke:#191919;stroke-width:0.5;"/><ellipse cx="638.5" cy="427.3691" fill="#EFBABC" rx="12" ry="12" style="stroke:#191919;stroke-width:0.5;"/><rect fill="#FFFFFF" height="100.3193" style="stroke:#393939;stroke-width:1.0;" width="10" x="625" y="112.7988"/><rect fill="#FFFFFF" height="64.4434" style="stroke:#393939;stroke-width:1.0;" width="10" x="625" y="313.4375"/><polygon fill="#191919" points="613,108.7988,623,112.7988,613,116.7988,617,112.7988" style="stroke:#191919;stroke-width:1.0;"/><line style="stroke:#191919;stroke-width:1.0;" x1="487" x2="619" y1="112.7988" y2="112.7988"/><text fill="#000000" font-family="sans-serif" font-size="13" lengthAdjust="spacing" textLength="35" x="494" y="108.0566">GET /</text><polygon fill="#191919" points="498,209.1182,488,213.1182,498,217.1182,494,213.1182" style="stroke:#191919;stroke-width:1.0;"/><line style="stroke:#191919;stroke-width:1.0;stroke-dasharray:2.0,2.0;" x1="492" x2="629" y1="213.1182" y2="213.1182"/><text fill="#000000" font-family="sans-serif" font-size="13" lengthAdjust="spacing" textLength="46" x="504" y="208.376">200 OK</text><path d="M5,129.2988 L5,283.2988 A3.5,3.5 0 0 0 8.5,286.7988 L478.5,286.7988 A3.5,3.5 0 0 0 482,283.2988 L482,135.7988 L472,125.7988 L8.5,125.7988 A3.5,3.5 0 0 0 5,129.2988 " fill="#E5E5E5" style="stroke:#181818;stroke-width:1.5;"/><path d="M472,125.7988 L472,134.0488 A1.75,1.75 0 0 0 473.75,135.7988 L482,135.7988 L472,125.7988 " fill="#E5E5E5" style="stroke:#181818;stroke-width:1.5;"/><text fill="#191919" font-family="Courier" font-size="13" lengthAdjust="spacing" textLength="8" x="11" y="142.8657">{</text><text fill="#191919" font-family="Courier" font-size="13" lengthAdjust="spacing" textLength="88" x="27" y="157.9985">"_links": {</text><text fill="#191919" font-family="Courier" font-size="13" lengthAdjust="spacing" textLength="72" x="43" y="173.1313">"user": {</text><text fill="#191919" font-family="Courier" font-size="13" lengthAdjust="spacing" textLength="336" x="59" y="188.2642">"href": "https://example.com/users/123456"</text><text fill="#191919" font-family="Courier" font-size="13" lengthAdjust="spacing" textLength="16" x="43" y="203.397">},</text><text fill="#FF0000" font-family="Courier" font-size="13" lengthAdjust="spacing" textLength="144" x="43" y="218.5298">"order-history": {</text><text fill="#FF0000" font-family="Courier" font-size="13" lengthAdjust="spacing" textLength="408" x="59" y="233.6626">"href": "https://example.com/orders?user_id=123456"</text><text fill="#FF0000" font-family="Courier" font-size="13" lengthAdjust="spacing" textLength="8" x="43" y="248.7954">}</text><text fill="#191919" font-family="Courier" font-size="13" lengthAdjust="spacing" textLength="8" x="27" y="263.9282">}</text><text fill="#191919" font-family="Courier" font-size="13" lengthAdjust="spacing" textLength="8" x="11" y="279.061">}</text><polygon fill="#191919" points="613,309.4375,623,313.4375,613,317.4375,617,313.4375" style="stroke:#191919;stroke-width:1.0;"/><line style="stroke:#191919;stroke-width:1.0;" x1="487" x2="619" y1="313.4375" y2="313.4375"/><text fill="#000000" font-family="sans-serif" font-size="13" lengthAdjust="spacing" textLength="119" x="494" y="308.6953">GET *order-history</text><path d="M316,329.9375 L316,347.9375 A3.5,3.5 0 0 0 319.5,351.4375 L797.5,351.4375 A3.5,3.5 0 0 0 801,347.9375 L801,336.4375 L791,326.4375 L319.5,326.4375 A3.5,3.5 0 0 0 316,329.9375 " fill="#E5E5E5" style="stroke:#181818;stroke-width:1.5;"/><path d="M791,326.4375 L791,334.6875 A1.75,1.75 0 0 0 792.75,336.4375 L801,336.4375 L791,326.4375 " fill="#E5E5E5" style="stroke:#181818;stroke-width:1.5;"/><text fill="#191919" font-family="Courier" font-size="13" lengthAdjust="spacing" textLength="464" x="322" y="343.5044">Accesses order history without having to access user first</text><polygon fill="#191919" points="498,373.8809,488,377.8809,498,381.8809,494,377.8809" style="stroke:#191919;stroke-width:1.0;"/><line style="stroke:#191919;stroke-width:1.0;stroke-dasharray:2.0,2.0;" x1="492" x2="629" y1="377.8809" y2="377.8809"/><text fill="#000000" font-family="sans-serif" font-size="13" lengthAdjust="spacing" textLength="46" x="504" y="373.1387">200 OK</text><!--MD5=[79db57988180771172ca4b18e1a5930c]
@startuml hub_resource
!theme mars
skinparam NoteFontName Courier

actor Client as client
boundary API as api

client -> api++: GET /
return 200 OK
note left
{
  "_links": {
    "user": {
      "href": "https://example.com/users/123456"
    },
<color:red>    "order-history": {
<color:red>      "href": "https://example.com/orders?user_id=123456"
<color:red>    }
  }
}
endnote

client -> api++: GET *order-history
note across
Accesses order history without having to access user first
endnote
return 200 OK
@enduml

@startuml hub_resource
skinparam BackgroundColor F9F9F9
skinparam shadowing false
skinparam RoundCorner 7
skinparam ArrowColor 191919
skinparam FontColor 191919
skinparam SequenceLifeLineBorderColor 393939
skinparam SequenceGroupHeaderFontColor 191919
skinparam SequenceGroupFontColor 393939
skinparam SequenceGroupBorderColor 393939
skinparam SequenceGroupBorderThickness 1

skinparam sequenceDivider {
    BorderColor 191919
    BorderThickness 1
    FontColor 191919
}

skinparam participant {
    BackgroundColor E55756
    BorderColor 191919
    FontColor F9F9F9
    BorderThickness 1.5
}

skinparam database {
    BackgroundColor A4DBD8
    BorderColor 191919
    FontColor 191919
}

skinparam entity {
    BackgroundColor EFBABC
    BorderColor 191919
    FontColor 191919
}

skinparam note {
    BackgroundColor e5e5e5
    BorderColor 191919
    FontColor 191919
    BorderThickness 1.5
}

skinparam actor {
    BackgroundColor 191919
    BorderColor 191919
    FontColor 191919
}

skinparam boundary {
    BackgroundColor EFBABC
    BorderColor 191919
    FontColor 191919
}

skinparam control {
    BackgroundColor EFBABC
    BorderColor 191919
    FontColor 191919
}

skinparam collections {
    BackgroundColor E55756
    BorderColor 191919
    FontColor 191919
    BorderThickness 1.5
}

skinparam queue {
    BackgroundColor E55756
    BorderColor 191919
    FontColor FFF
    BorderThickness 1.5
}
skinparam NoteFontName Courier

actor Client as client
boundary API as api

client -> api++: GET /
return 200 OK
note left
{
  "_links": {
    "user": {
      "href": "https://example.com/users/123456"
    },
<color:red>    "order-history": {
<color:red>      "href": "https://example.com/orders?user_id=123456"
<color:red>    }
  }
}
endnote

client -> api++: GET *order-history
note across
Accesses order history without having to access user first
endnote
return 200 OK
@enduml

PlantUML version 1.2022.7(Mon Aug 22 18:01:30 WEST 2022)
(GPL source distribution)
Java Runtime: OpenJDK Runtime Environment
JVM: OpenJDK 64-Bit Server VM
Default Encoding: UTF-8
Language: en
Country: GB
--></g></svg>